<svg xmlns="http://www.w3.org/2000/svg" viewBox="0 0 1080 1080"><defs><style>.a{fill:none;stroke:#000;stroke-miterlimit:10;stroke-width:20px;}</style></defs><path d="M732.76,369.66A124.23,124.23,0,0,1,857,493.89V859.66H223V493.89A124.23,124.23,0,0,1,347.24,369.66H732.76m0-20H347.24A144.23,144.23,0,0,0,203,493.89V879.66H877V493.89A144.23,144.23,0,0,0,732.76,349.66Z"/><path d="M563,745v60H518V745h45m20-20H498V825h85V725Z"/><path d="M907,514.41v200H877v-200h30m20-20H857v240h70v-240Z"/><path d="M702,463.66a54,54,0,1,1-54,54,54.06,54.06,0,0,1,54-54m0-20a74,74,0,1,0,74,74,74,74,0,0,0-74-74Z"/><path d="M540,220.34a13.5,13.5,0,1,1-13.5,13.5,13.52,13.52,0,0,1,13.5-13.5m0-20a33.5,33.5,0,1,0,33.5,33.5,33.5,33.5,0,0,0-33.5-33.5Z"/><line class="a" x1="540.5" y1="350.16" x2="540.5" y2="265.16"/><path d="M378,463.66a54,54,0,1,1-54,54,54.06,54.06,0,0,1,54-54m0-20a74,74,0,1,0,74,74,74,74,0,0,0-74-74Z"/><path d="M203,514.41v200H173v-200h30m20-20H153v240h70v-240Z"/><path d="M627,745v60H582V745h45m20-20H562V825h85V725Z"/><path d="M692,745v60H647V745h45m20-20H627V825h85V725Z"/><path d="M498,745v60H453V745h45m20-20H433V825h85V725Z"/><path d="M433,745v60H388V745h45m20-20H368V825h85V725Z"/></svg>